<svg width="515" height="180" viewBox="0 0 515 180" fill="none" xmlns="http://www.w3.org/2000/svg">
  <rect width="515" height="180" rx="32" fill="#ffb663ff" fill-opacity="0.15"/>
  <text x="36" y="56" font-size="32" font-family="Segoe UI, Arial, sans-serif" fill="#fff" font-weight="bold">Infra &amp; Ops</text>
  <g transform="translate(36,72)">
      <g transform="scale(0.32)">
        <!-- Docker -->
        <svg width="256" height="256" viewBox="0 0 256 256">
          <rect width="256" height="256" fill="#2396ED" rx="60"/>
          <path fill="#fff" d="M141.187 122.123H161.904V103.379H141.187V122.123ZM116.525 122.123H137.241V103.379H116.525V122.123ZM92.3554 122.123H113.072V103.379H92.3554V122.123ZM68.1859 122.123H88.4093V103.379H68.1859V122.123ZM43.5233 122.123H64.2399V103.379H43.5233V122.123ZM68.1859 99.4333H88.4093V80.6896H68.1859V99.4333ZM92.3554 99.4333H113.072V80.6896H92.3554V99.4333ZM116.525 99.4333H137.241V80.6896H116.525V99.4333ZM116.525 76.7436H137.241V58H116.525V76.7436ZM228 113.738C228 113.738 219.121 105.352 200.871 108.312C198.898 94.0075 183.607 85.6222 183.607 85.6222C183.607 85.6222 169.303 102.886 179.661 122.123C176.702 123.603 171.769 125.576 164.37 125.576H28.7257C26.2594 134.948 26.2594 197.097 94.3284 197.097C143.16 197.097 179.661 174.408 196.925 132.974C222.574 134.948 228 113.738 228 113.738Z"/>
        </svg>
      </g>
      <g transform="translate(90,0) scale(0.32)">
        <!-- Nginx -->
        <svg width="256" height="256" viewBox="0 0 256 256">
          <rect width="256" height="256" fill="#009639" rx="60"/>
          <path fill="#fff" d="M195.338 213C190.746 213 186.224 211.213 182.847 207.829L78.3239 103.307V195.34C78.3239 205.095 70.4184 213 60.662 213C50.9126 213 43 205.095 43 195.34V60.6678C43 53.5189 47.3095 47.0834 53.908 44.3496C60.4995 41.6087 68.1012 43.1204 73.1525 48.1784L177.676 152.7V60.6678C177.676 50.9122 185.582 43.0074 195.338 43.0074C205.095 43.0074 213 50.9122 213 60.6678V195.34C213 202.481 208.69 208.924 202.092 211.658C199.909 212.562 197.62 213 195.338 213Z"/>
        </svg>
      </g>
      <g transform="translate(180,0) scale(0.32)">
        <!-- Grafana -->
        <svg width="256" height="256" fill="none" viewBox="0 0 256 256">
          <rect width="256" height="256" fill="#242938" rx="60"/>
          <path fill="url(#paint0_linear_97_938)" d="M220.724 116.455C220.37 113.258 220.014 109.35 218.593 105.087C217.527 100.824 215.751 96.206 213.265 91.2327C210.778 86.2593 207.581 81.2859 203.673 76.3125C202.252 74.5364 200.476 72.4049 198.345 70.6288C201.186 59.2611 194.793 49.6696 194.793 49.6696C184.135 48.9591 177.03 52.8667 174.543 54.9982C174.188 54.9982 173.833 54.643 173.122 54.2877C171.347 53.5773 169.57 52.8667 167.439 52.1563C165.308 51.4458 163.531 51.0906 161.4 50.3801C159.268 50.0248 157.136 49.6696 155.361 49.3143C155.005 49.3143 154.65 49.3143 154.295 49.3143C149.676 34.3943 136.177 28 136.177 28C121.258 37.5915 118.416 50.7354 118.416 50.7354C118.416 50.7354 118.416 51.0906 118.416 51.4458C117.705 51.801 116.639 51.801 115.929 52.1563C114.863 52.5115 113.797 52.8667 112.376 53.222C111.311 53.5773 110.245 53.9325 108.824 54.643C106.693 55.7087 104.206 56.7744 102.075 57.8401C99.9431 58.9058 97.8117 60.3268 95.6803 61.7478C95.325 61.7478 95.325 61.3925 95.325 61.3925C74.3659 53.5773 55.8934 63.1687 55.8934 63.1687C54.1172 85.1936 64.0639 99.4031 66.1954 101.89C65.8401 103.311 65.1297 104.732 64.7744 106.153C63.3535 111.126 61.9325 116.455 61.222 121.784C61.222 122.494 60.8667 123.204 60.8667 123.915C41.6838 133.506 36 153.044 36 153.044C51.9858 171.517 70.8135 172.582 70.8135 172.582C73.3002 176.846 75.7869 180.753 78.984 184.66C80.4049 186.081 81.8259 187.858 82.8917 189.279C77.2078 205.975 83.6021 219.83 83.6021 219.83C101.364 220.54 113.087 212.014 115.574 209.883C117.35 210.593 119.126 210.948 120.902 211.659C126.231 213.08 131.915 213.791 137.598 214.145C139.019 214.145 140.441 214.145 141.862 214.145H142.572H142.927H143.637H144.348C152.874 226.223 167.439 228 167.439 228C178.096 216.987 178.451 205.975 178.451 203.488C178.451 203.133 178.451 203.133 178.451 203.133V202.778C180.582 201.357 182.713 199.581 184.846 197.805C189.108 193.897 192.66 189.634 195.858 185.016C196.213 184.66 196.568 184.306 196.568 183.595C208.646 184.306 216.817 176.135 216.817 176.135C214.685 163.701 207.58 157.662 206.159 156.597C206.159 156.597 206.159 156.597 205.805 156.597C205.805 155.886 205.805 155.175 205.805 154.465C205.805 153.044 205.805 151.623 205.805 150.558V148.782V148.426V148.071C205.805 147.715 205.805 147.715 205.805 147.715V147.005V145.94C205.805 145.584 205.805 145.229 205.805 144.874C205.805 144.519 205.805 144.163 205.805 143.808V142.742V141.676C205.449 140.256 205.449 138.835 205.094 137.769C203.673 132.441 201.897 127.467 199.055 122.849C196.213 118.231 193.016 114.323 189.108 110.771C185.2 107.218 180.938 104.732 176.32 102.6C171.701 100.469 167.083 99.4031 162.11 98.6927C159.623 98.3374 157.492 98.3374 155.005 98.3374H154.295H153.94H153.584H153.229H152.519C152.163 98.3374 151.808 98.3374 151.453 98.3374C150.387 98.3374 148.966 98.6927 147.901 98.6927C143.283 99.4031 138.664 101.179 134.757 103.666C130.849 106.153 127.297 108.995 124.455 112.192C121.613 115.389 119.481 119.297 118.06 123.204C116.639 127.112 115.929 131.019 115.574 134.927C115.574 135.993 115.574 136.703 115.574 137.769C115.574 138.124 115.574 138.124 115.574 138.48V139.19C115.574 139.545 115.574 140.256 115.574 140.611C115.929 142.387 116.284 144.519 116.639 146.295C117.705 149.847 119.481 153.044 121.258 155.886C123.389 158.728 125.876 160.86 128.363 162.635C130.849 164.412 133.691 165.833 136.533 166.543C139.375 167.254 141.862 167.609 144.703 167.609C145.058 167.609 145.414 167.609 145.769 167.609H146.124H146.48C146.835 167.609 147.19 167.609 147.19 167.609C147.19 167.609 147.19 167.609 147.545 167.609H147.901H148.256C148.611 167.609 148.966 167.609 149.322 167.609C149.676 167.609 150.032 167.609 150.387 167.254C151.097 167.254 151.453 166.899 152.163 166.899C153.229 166.543 154.295 166.188 155.361 165.478C156.426 165.122 157.136 164.412 158.202 163.701C158.557 163.701 158.558 163.347 158.913 162.991C159.979 162.281 159.979 160.86 159.268 160.329C158.558 159.439 157.492 159.083 156.782 159.794C156.426 159.794 156.426 160.329 156.071 160.329C155.361 160.504 154.65 160.86 153.584 161.214C152.874 161.57 151.808 161.57 151.097 161.925C150.742 161.925 150.032 161.925 149.676 161.925C149.322 161.925 149.322 161.925 148.966 161.925C148.611 161.925 148.611 161.925 148.256 161.925C147.901 161.925 147.901 161.925 147.545 161.925C147.19 161.925 146.835 161.925 146.835 161.925H146.48H146.124C145.769 161.925 145.769 161.925 145.414 161.925C143.283 161.57 141.506 161.214 139.375 160.329C137.243 159.439 135.467 158.018 133.69 156.597C131.915 155.175 130.494 153.044 129.428 151.268C128.363 149.492 127.297 147.005 126.941 144.519C126.586 143.453 126.586 142.032 126.586 140.966C126.586 140.611 126.586 140.256 126.586 139.901V139.545V139.19C126.586 138.48 126.586 137.769 126.941 137.058C128.007 131.73 130.494 126.757 134.757 122.494C135.823 121.428 136.888 120.717 137.954 119.651C139.019 118.941 140.441 118.231 141.506 117.52C142.927 116.81 144.348 116.455 145.414 116.099C146.835 115.744 148.256 115.389 149.676 115.389C150.387 115.389 151.097 115.389 151.808 115.389C152.163 115.389 152.163 115.389 152.163 115.389H152.874H153.229H153.94C155.361 115.389 157.136 115.744 158.557 116.099C161.755 116.81 164.596 117.876 167.439 119.651C173.122 122.849 177.74 127.823 180.938 133.506C182.359 136.348 183.425 139.545 184.135 142.742C184.135 143.453 184.49 144.519 184.49 145.229V145.94V146.65C184.49 147.005 184.49 147.005 184.49 147.361C184.49 147.715 184.49 147.715 184.49 148.071V148.782V149.492C184.49 149.847 184.49 150.557 184.49 150.913C184.49 151.979 184.49 152.689 184.135 153.755C184.135 154.465 183.78 155.531 183.78 156.241C183.78 156.952 183.424 158.018 183.069 158.728C182.713 160.504 182.003 162.281 181.293 163.701C179.872 166.899 178.096 170.096 175.964 173.293C171.701 178.977 166.018 183.95 159.268 186.792C156.071 188.213 152.519 189.279 148.966 189.989C147.19 190.345 145.414 190.345 143.637 190.699H143.283H142.927H142.216H141.506H141.151C141.506 190.699 141.151 190.699 141.151 190.699C140.085 190.699 139.375 190.699 138.309 190.699C134.402 190.345 130.494 189.634 126.941 188.568C123.389 187.503 119.481 186.081 116.284 184.306C109.535 180.753 103.495 175.78 98.5221 169.74C96.0355 166.899 93.904 163.701 92.4831 160.329C90.7068 156.597 89.286 153.044 88.2202 149.492C87.1545 145.94 86.4441 142.032 86.4441 138.48V137.769V137.414V136.703V134.572V134.216V133.506V133.151C86.4441 132.796 86.4441 132.085 86.4441 131.73C86.4441 129.954 86.7993 127.823 86.7993 126.046C87.1545 124.27 87.5097 122.138 87.865 120.363C88.2202 118.586 88.5755 116.455 89.2859 114.678C90.3516 111.126 91.7726 107.574 93.1936 104.021C96.3907 97.2717 100.298 91.2327 105.272 86.6145C106.337 85.5488 107.758 84.1279 109.179 83.0621C110.6 81.9964 112.021 80.9307 113.442 80.2202C114.863 79.1545 116.284 78.444 117.705 77.7336C118.416 77.3783 119.126 77.023 119.837 76.6678C120.192 76.6678 120.547 76.3125 120.902 76.3125C121.257 76.3125 121.613 75.9573 121.968 75.9573C123.389 75.2469 125.165 74.8916 126.586 74.1812C126.941 74.1812 127.297 73.8259 127.652 73.8259C128.007 73.8259 128.363 73.4706 128.717 73.4706C129.428 73.1154 130.494 73.1154 131.204 72.7602C131.559 72.7602 131.915 72.4049 132.625 72.4049C132.98 72.4049 133.336 72.4049 134.046 72.0497C134.402 72.0497 134.757 72.0497 135.467 71.6945H136.177H136.888C137.243 71.6945 137.598 71.6945 138.309 71.3392C138.664 71.3392 139.375 71.3392 139.73 70.984C140.085 70.984 140.796 70.984 141.151 70.984C141.506 70.984 141.862 70.984 142.216 70.984H142.927H143.283H143.637C143.993 70.984 144.703 70.984 145.058 70.984H145.769C145.769 70.984 146.124 70.984 145.769 70.984H146.124C146.48 70.984 146.835 70.984 147.19 70.984C148.966 70.984 150.387 70.984 152.163 70.984C155.361 70.984 158.557 71.3392 161.755 72.0497C167.794 73.1154 173.478 75.2469 178.807 77.7336C184.135 80.2202 188.753 83.4173 192.66 86.9697C193.016 87.325 193.016 87.325 193.371 87.6803C193.726 88.0355 193.726 88.0355 194.081 88.3907C194.437 88.746 195.147 89.1012 195.502 89.8116C195.858 90.5221 196.568 90.5221 196.924 91.2327C197.279 91.9431 197.989 92.2984 198.345 92.6536C200.12 94.4298 201.541 96.206 202.963 98.3374C205.805 101.89 208.292 105.797 210.067 109.35C210.067 109.705 210.423 109.705 210.423 110.06C210.423 110.416 210.778 110.416 210.778 110.771C211.133 111.126 211.133 111.481 211.488 112.192C211.844 112.547 211.844 112.902 212.198 113.613C212.554 113.968 212.554 114.323 212.909 115.034C213.62 116.81 214.331 118.231 214.685 119.651C215.396 122.138 216.106 124.27 216.462 126.046C216.817 126.757 217.527 127.467 218.238 127.112C218.948 127.112 219.659 126.402 219.659 125.69C221.08 121.428 221.08 118.941 220.724 116.455Z"/>
          <defs><linearGradient id="paint0_linear_97_938" x1="129.039" x2="129.039" y1="282.048" y2="50.683" gradientUnits="userSpaceOnUse"><stop stop-color="#FFF100"/><stop offset="1" stop-color="#F05A28"/></linearGradient></defs>
        </svg>
      </g>
      <g transform="translate(270,0) scale(0.32)">
        <!-- Kafka -->
        <svg width="256" height="256" viewBox="0 0 256 256" fill="none" xmlns="http://www.w3.org/2000/svg">
          <rect width="256" height="256" rx="60" fill="#A9CBD4"/>
          <g clip-path="url(#clip0_702_141)">
            <path d="M162.998 138.677C155.218 138.677 148.244 142.124 143.468 147.55L131.23 138.886C132.529 135.31 133.275 131.469 133.275 127.449C133.275 123.499 132.555 119.722 131.299 116.199L143.509 107.627C148.285 113.025 155.241 116.453 162.998 116.453C177.356 116.453 189.04 104.772 189.04 90.4111C189.04 76.0505 177.356 64.3689 162.998 64.3689C148.639 64.3689 136.956 76.0505 136.956 90.4111C136.956 92.9814 137.344 95.46 138.041 97.8074L125.822 106.384C120.718 100.051 113.368 95.6302 104.995 94.2806V79.5542C116.791 77.0766 125.68 66.5956 125.68 54.072C125.68 39.7114 113.996 28.0298 99.6375 28.0298C85.2788 28.0298 73.5953 39.7114 73.5953 54.072C73.5953 66.4279 82.2533 76.7796 93.8138 79.4341V94.3517C78.0368 97.1211 66 110.89 66 127.449C66 144.089 78.156 157.908 94.0469 160.583V176.335C82.3682 178.902 73.5953 189.317 73.5953 201.757C73.5953 216.118 85.2788 227.8 99.6375 227.8C113.996 227.8 125.68 216.118 125.68 201.757C125.68 189.317 116.907 178.902 105.228 176.335V160.583C113.271 159.228 120.548 154.996 125.703 148.675L138.023 157.395C137.339 159.721 136.956 162.175 136.956 164.72C136.956 179.08 148.639 190.762 162.998 190.762C177.356 190.762 189.04 179.08 189.04 164.72C189.04 150.359 177.356 138.677 162.998 138.677ZM162.998 77.7846C169.961 77.7846 175.624 83.4502 175.624 90.4111C175.624 97.372 169.961 103.037 162.998 103.037C156.035 103.037 150.372 97.372 150.372 90.4111C150.372 83.4502 156.035 77.7846 162.998 77.7846ZM87.011 54.072C87.011 47.1111 92.6747 41.446 99.6375 41.446C106.6 41.446 112.264 47.1111 112.264 54.072C112.264 61.0329 106.6 66.698 99.6375 66.698C92.6747 66.698 87.011 61.0329 87.011 54.072ZM112.264 201.757C112.264 208.718 106.6 214.383 99.6375 214.383C92.6747 214.383 87.011 208.718 87.011 201.757C87.011 194.797 92.6747 189.131 99.6375 189.131C106.6 189.131 112.264 194.797 112.264 201.757ZM99.6365 145.058C89.9255 145.058 82.0255 137.16 82.0255 127.449C82.0255 117.738 89.9255 109.838 99.6365 109.838C109.347 109.838 117.247 117.738 117.247 127.449C117.247 137.16 109.347 145.058 99.6365 145.058ZM162.998 177.346C156.035 177.346 150.372 171.68 150.372 164.72C150.372 157.759 156.035 152.094 162.998 152.094C169.961 152.094 175.624 157.759 175.624 164.72C175.624 171.68 169.961 177.346 162.998 177.346Z" fill="black"/>
          </g>
          <defs>
            <clipPath id="clip0_702_141">
              <rect width="123.04" height="200" fill="white" transform="translate(66 28)"/>
            </clipPath>
          </defs>
        </svg>
      </g>
      <g transform="translate(360,0) scale(0.32)">
        <!-- RabbitMQ -->
        <svg width="256" height="256" viewBox="0 0 256 256" fill="none" xmlns="http://www.w3.org/2000/svg">
          <rect width="256" height="256" rx="60" fill="#242938"/>
          <path d="M196.813 112.43H146.955C145.753 112.43 144.601 111.953 143.751 111.103C142.901 110.254 142.423 109.102 142.423 107.901V55.9657C142.423 52.1197 139.303 49 135.457 49H117.659C113.81 49 110.692 52.1197 110.692 55.9657V107.587C110.692 110.265 108.526 112.442 105.846 112.453L89.5074 112.531C86.8051 112.546 84.6096 110.354 84.6148 107.656L84.7162 55.9774C84.725 52.1256 81.6037 49 77.75 49H59.9668C56.1178 49 53 52.1197 53 55.9657V201.392C53 204.808 55.7691 207.576 59.1846 207.576H196.813C200.231 207.576 203 204.808 203 201.392V118.615C203 115.198 200.231 112.43 196.813 112.43ZM173.432 167.032C173.432 171.509 169.801 175.14 165.321 175.14H151.256C146.776 175.14 143.144 171.509 143.144 167.032V152.974C143.144 148.496 146.776 144.866 151.256 144.866H165.321C169.801 144.866 173.432 148.496 173.432 152.974V167.032Z" fill="#FF6600"/>
        </svg>
      </g>
    </g>
</svg>
